<?xml version="1.0" standalone="no"?>
<!DOCTYPE svg PUBLIC "-//W3C//DTD SVG 20010904//EN"
 "http://www.w3.org/TR/2001/REC-SVG-20010904/DTD/svg10.dtd">
<svg version="1.0" xmlns="http://www.w3.org/2000/svg"
 width="216.000000pt" height="78.000000pt" viewBox="0 0 216.000000 78.000000"
 preserveAspectRatio="xMidYMid meet">

<g transform="translate(0.000000,78.000000) scale(0.100000,-0.100000)"
fill="#000000" stroke="none">
<path d="M0 390 l0 -390 1080 0 1080 0 0 390 0 390 -1080 0 -1080 0 0 -390z
m800 10 l0 -91 -62 3 c-54 3 -64 6 -73 26 -11 25 -25 29 -25 7 0 -36 -87 -48
-120 -15 -27 27 -25 66 5 95 31 32 69 32 100 0 l25 -24 26 25 c18 19 31 24 50
20 21 -6 24 -3 24 19 0 20 5 25 25 25 25 0 25 -1 25 -90z m720 0 c0 -83 -1
-90 -20 -90 -19 0 -20 7 -20 90 0 83 1 90 20 90 19 0 20 -7 20 -90z m-1053 58
c13 -12 23 -25 23 -30 0 -12 -37 -10 -59 4 -37 23 -69 -9 -57 -57 5 -18 13
-25 31 -25 13 0 27 5 30 10 7 11 55 14 55 3 0 -4 -10 -17 -22 -30 -51 -54
-148 -14 -148 62 0 75 92 114 147 63z m558 -30 c10 -29 21 -57 25 -61 3 -4 15
20 25 53 14 45 23 60 37 60 23 0 23 -1 -9 -92 -24 -71 -29 -78 -53 -78 -24 0
-28 7 -50 73 -34 100 -34 97 -12 97 16 0 24 -12 37 -52z m565 37 c0 -9 7 -18
15 -21 8 -4 15 -12 15 -20 0 -8 -7 -14 -15 -14 -10 0 -15 -10 -15 -30 0 -18 6
-33 15 -36 19 -8 20 -34 1 -34 -36 0 -46 12 -46 55 0 24 -5 45 -12 47 -8 3 -8
12 3 36 14 33 39 44 39 17z m270 8 c1 -28 -47 -173 -57 -173 -8 0 -6 19 8 68
11 37 22 77 25 90 6 20 24 32 24 15z m-925 -48 c39 -38 33 -55 -21 -55 -32 0
-44 -4 -41 -12 2 -7 11 -11 18 -9 47 13 59 13 59 -2 0 -36 -79 -50 -112 -20
-21 19 -24 72 -5 95 27 34 70 36 102 3z m328 12 l27 5 0 -65 0 -64 -54 -1
c-68 0 -89 18 -84 74 3 43 38 70 67 54 9 -4 29 -6 44 -3z m87 -36 c0 -22 6
-44 15 -51 23 -19 45 5 45 51 0 32 3 39 20 39 18 0 20 -7 20 -64 l0 -64 -57 1
c-50 2 -59 5 -70 27 -7 14 -13 42 -13 63 0 30 4 37 20 37 17 0 20 -7 20 -39z
m420 32 c0 -3 -7 -15 -17 -25 -15 -17 -15 -19 2 -38 28 -31 8 -37 -22 -7 l-27
26 24 26 c23 24 40 32 40 18z m160 -18 l23 -25 -23 -25 c-23 -24 -50 -33 -50
-17 0 5 9 17 20 27 l20 18 -22 24 c-16 17 -18 23 -6 23 8 0 25 -11 38 -25z"/>
<path d="M554 396 c-9 -24 4 -48 23 -44 12 2 18 12 18 28 0 29 -32 41 -41 16z"/>
<path d="M710 395 c-17 -20 -6 -45 20 -45 17 0 21 5 18 27 -4 31 -20 40 -38
18z"/>
<path d="M870 400 c0 -5 9 -10 21 -10 11 0 17 5 14 10 -3 6 -13 10 -21 10 -8
0 -14 -4 -14 -10z"/>
<path d="M1197 403 c-13 -12 -7 -51 9 -57 22 -8 22 -8 34 15 17 30 -20 66 -43
42z"/>
</g>
</svg>
